<svg xmlns="http://www.w3.org/2000/svg" version="1" width="105" height="105"><path d="M27.44 29.87L52.5 53.23l-.73-9.7-24.33-13.66z" fill="#00d4ff" fill-rule="evenodd" stroke="#000" stroke-width=".3" stroke-linecap="square"/><path d="M75.84 28.14l-23.32 25.1-.71-9.69 24.03-15.4z" fill="#0092ff" fill-rule="evenodd" stroke="#000" stroke-width=".3" stroke-linecap="square"/><path d="M27.5 29.83l25.02 23.4-9.69.69L27.5 29.83zM29.11 78.25l23.41-25.01.68 9.68-24.09 15.33zM77.54 76.64l-25.02-23.4 9.69-.69 15.33 24.1z" fill="#0092ff" fill-rule="evenodd" stroke="#000" stroke-width=".3" stroke-linecap="square"/><path d="M75.86 28.17L52.5 53.23l9.7-.72 13.66-24.34z" fill="#00d4ff" fill-rule="evenodd" stroke="#000" stroke-width=".3" stroke-linecap="square"/><path d="M77.56 76.6L52.5 53.22l.73 9.7L77.56 76.6zM29.14 78.3L52.5 53.22l-9.7.73-13.66 24.33z" fill="#00d4ff" fill-rule="evenodd" stroke="#000" stroke-width=".3" stroke-linecap="square"/><g fill-rule="evenodd" stroke="#000" stroke-width=".3" stroke-linecap="square"><path d="M12.84 53.2l39.65.02-8.27-7.65-31.38 7.62z" fill="#a8dbdb"/><path d="M52.48 13.56l.03 39.65-8.24-7.64 8.21-32zM12.86 53.1l39.65.11-7.67 8.22-31.98-8.32zM52.4 92.86l.11-39.65 8.22 7.67-8.32 31.98zM92.16 53.31l-39.65-.1 7.67-8.22 31.98 8.32z" fill="#0700d6"/><path d="M52.52 13.57l-.03 39.65 7.65-8.26-7.62-31.39zM92.14 53.25l-39.65-.03 8.26 7.65 31.39-7.62zM52.46 92.87l.03-39.65-7.65 8.27 7.62 31.38z" fill="#a8dbdb"/></g><g font-size="12" font-weight="700" font-family="Arial"><text x="517.85" y="537.13" style="text-align:start;line-height:125%" transform="translate(-422.24 -480.33)"><tspan x="517.85" y="537.13">E</tspan></text><text x="423.71" y="537.84" style="text-align:start;line-height:125%" transform="translate(-422.24 -480.33)"><tspan x="423.71" y="537.84">O</tspan></text></g><g font-size="12" font-weight="700" font-family="Arial"><text x="469.81" y="489.63" style="text-align:start;line-height:125%" transform="translate(-421.61 -480.29)"><tspan x="469.81" y="489.63" style="text-align:start;line-height:125%">N</tspan></text><text x="470.19" y="584.38" style="text-align:start;line-height:125%" transform="translate(-421.61 -480.29)"><tspan x="470.19" y="584.38">S</tspan></text></g><g><g font-size="9" font-weight="400" font-family="Arial"><text x="437.53" y="506.13" style="text-align:start;line-height:125%" transform="translate(-422.8 -479.94)"><tspan x="437.53" y="506.13">NO</tspan></text><text x="500.38" y="506.13" style="text-align:start;line-height:125%" transform="translate(-422.8 -479.94)"><tspan x="500.38" y="506.13" style="text-align:start;line-height:125%">NE</tspan></text><text x="500.76" y="566.63" style="text-align:start;line-height:125%" transform="translate(-422.8 -479.94)"><tspan x="500.76" y="566.63">SE</tspan></text><text x="437.92" y="566.63" style="text-align:start;line-height:125%" transform="translate(-422.8 -479.94)"><tspan x="437.92" y="566.63" style="text-align:start;line-height:125%">SO</tspan></text></g></g></svg>